<svg viewBox="0 0 54.25 62" width="54.25" height="62" xmlns="http://www.w3.org/2000/svg" xmlns:xlink="http://www.w3.org/1999/xlink" preserveAspectRatio="none"><defs></defs><style>.aIptOCySncolors-0gGGxT8lc {fill:#f1c11a;fill-opacity:1;}</style><g opacity="1" transform="rotate(0 0 0)">
        <svg width="54.25" height="62" x="0" y="0" version="1.1" preserveAspectRatio="none" viewBox="15 10 70 80">
          <g transform="matrix(1 0 0 1 0 0)" class="aIptOCySncolors-0gGGxT8lc"><polygon points="71.523,34.437 50,21.829 28.477,34.437 18.376,28.519 50,10 81.628,28.519 "></polygon><polygon points="35.205,63.587 49.997,54.929 64.792,63.597 50,72.256 "></polygon><polygon points="53.366,31.689 68.161,40.352 68.161,57.679 53.366,49.017 "></polygon><polygon points="46.631,49.014 31.843,57.673 31.843,40.352 46.631,31.692 "></polygon><polygon points="84.99,71.487 53.366,90 53.366,78.171 74.899,65.563 74.899,40.345 85,34.434 85,71.468 "></polygon><polygon points="25.104,40.345 25.104,65.563 46.631,78.164 46.631,90 15,71.481 15,34.434 "></polygon></g>
        </svg>
      </g></svg>